<?xml version="1.0" standalone="no"?>
<!DOCTYPE svg PUBLIC "-//W3C//DTD SVG 20010904//EN"
 "http://www.w3.org/TR/2001/REC-SVG-20010904/DTD/svg10.dtd">
<svg version="1.0" xmlns="http://www.w3.org/2000/svg"
 width="256.000000pt" height="256.000000pt" viewBox="0 0 256.000000 256.000000"
 preserveAspectRatio="xMidYMid meet">
<metadata>
Created by potrace 1.14, written by Peter Selinger 2001-2017
</metadata>
<g transform="translate(0.000000,256.000000) scale(0.100000,-0.100000)"
fill="#000000" stroke="none">
<path d="M442 2219 c-51 -26 -99 -81 -112 -131 -7 -23 -9 -325 -8 -831 l3
-793 28 -42 c15 -23 46 -54 69 -69 l42 -28 816 0 816 0 42 28 c23 15 54 46 69
69 l28 42 0 816 0 816 -28 42 c-15 23 -46 54 -69 69 l-42 28 -805 3 c-805 2
-806 2 -849 -19z m729 -213 c6 -145 2 -609 -5 -614 -7 -4 -475 -7 -602 -3
l-31 1 0 313 c0 180 4 315 9 318 5 3 148 6 319 6 306 0 309 -1 310 -21z m855
-298 c1 -225 -2 -318 -10 -319 -15 -1 -574 -1 -606 0 l-25 1 2 293 c0 160 2
304 2 318 l1 26 318 -1 317 -1 1 -317z m-859 -541 c5 -5 8 -537 4 -618 -1 -14
-35 -16 -316 -16 -173 0 -316 3 -317 6 0 3 -2 146 -3 318 -2 310 -2 312 19
315 41 6 606 1 613 -5z m834 4 l26 -1 -1 -317 -1 -318 -317 -1 c-284 -1 -318
1 -319 15 0 9 -1 150 -2 314 0 203 3 301 10 305 9 6 465 7 604 3z"/>
</g>
</svg>
